<?xml version="1.0" encoding="utf-8"?>
<!-- Svg Vector Icons : http://www.onlinewebfonts.com/icon -->
<!DOCTYPE svg PUBLIC "-//W3C//DTD SVG 1.1//EN" "http://www.w3.org/Graphics/SVG/1.1/DTD/svg11.dtd">
<svg version="1.1" xmlns="http://www.w3.org/2000/svg" xmlns:xlink="http://www.w3.org/1999/xlink" x="0px" y="0px" viewBox="0 0 1000 1000" enable-background="new 0 0 1000 1000" xml:space="preserve">
<metadata> Svg Vector Icons : http://www.onlinewebfonts.com/icon </metadata>
<g><path d="M500,990l-24.2-33.7c-206.9-288-269.3-427.6-286.7-475c-18.1-42.2-27.3-87-27.3-133.2c0-90.3,35.2-175.3,99.1-239.1C324.7,45.2,409.7,10,500,10c90.3,0,175.3,35.2,239.1,99c63.9,63.9,99.1,148.8,99.1,239.1c0,46.2-9.2,91-27.3,133.2c-17.4,47.3-79.9,186.9-286.7,475L500,990z M500,69.5c-153.7,0-278.7,125-278.7,278.7c0,38.3,7.7,75.5,22.7,110.4l0.6,1.6c12.1,33.1,65.5,159.2,255.3,427.5c189.8-268.3,243.2-394.4,255.3-427.5l0.6-1.6c15.1-34.9,22.7-72.1,22.7-110.4C778.7,194.5,653.7,69.5,500,69.5z"/><path d="M500,458.3c-75.6,0-137.1-61.5-137.1-137.1c0-75.6,61.5-137.1,137.1-137.1c75.6,0,137.1,61.5,137.1,137.1C637.1,396.8,575.6,458.3,500,458.3z M500,243.6c-42.8,0-77.6,34.8-77.6,77.6c0,42.8,34.8,77.6,77.6,77.6c42.8,0,77.6-34.8,77.6-77.6C577.6,278.4,542.8,243.6,500,243.6z"/></g>
</svg>